<?xml version="1.0" encoding="UTF-8" standalone="no"?>
<!-- Created with Inkscape (http://www.inkscape.org/) -->

<svg
   xmlns:dc="http://purl.org/dc/elements/1.1/"
   xmlns:cc="http://creativecommons.org/ns#"
   xmlns:rdf="http://www.w3.org/1999/02/22-rdf-syntax-ns#"
   xmlns:svg="http://www.w3.org/2000/svg"
   xmlns="http://www.w3.org/2000/svg"
   xmlns:sodipodi="http://sodipodi.sourceforge.net/DTD/sodipodi-0.dtd"
   xmlns:inkscape="http://www.inkscape.org/namespaces/inkscape"
   width="6.3261714mm"
   height="4.874804mm"
   viewBox="0 0 22.415568 17.272928"
   id="svg2"
   version="1.1"
   inkscape:version="0.91 r"
   sodipodi:docname="coffee_b.svg">
  <title
     id="title3892">base template</title>
  <defs
     id="defs4" />
  <sodipodi:namedview
     id="base"
     pagecolor="#3e3e3e"
     bordercolor="#2a2a2a"
     borderopacity="1"
     inkscape:pageopacity="0"
     inkscape:pageshadow="2"
     inkscape:zoom="16"
     inkscape:cx="-13.126059"
     inkscape:cy="4.1220727"
     inkscape:document-units="px"
     inkscape:current-layer="layer3"
     showgrid="false"
     inkscape:snap-global="true"
     inkscape:snap-bbox="true"
     units="mm"
     inkscape:window-width="1920"
     inkscape:window-height="1017"
     inkscape:window-x="1072"
     inkscape:window-y="426"
     inkscape:window-maximized="1"
     fit-margin-top="0"
     fit-margin-left="0"
     fit-margin-right="0"
     fit-margin-bottom="0" />
  <metadata
     id="metadata7">
    <rdf:RDF>
      <cc:Work
         rdf:about="">
        <dc:format>image/svg+xml</dc:format>
        <dc:type
           rdf:resource="http://purl.org/dc/dcmitype/StillImage" />
        <dc:title>base template</dc:title>
      </cc:Work>
    </rdf:RDF>
  </metadata>
  <g
     inkscape:groupmode="layer"
     id="layer3"
     inkscape:label="base"
     transform="translate(-346.58825,-287.12149)">
    <g
       id="g5719"
       transform="matrix(0.1072886,0,0,0.1072886,285.97973,268.58714)"
       style="display:inline;fill:#000000;fill-opacity:1;enable-background:new"
       inkscape:export-xdpi="300"
       inkscape:export-ydpi="300"
       inkscape:export-filename="C:\Users\Admin\Documents\webdev\mc\design\img\coffee.png">
      <g
         transform="matrix(1.25,0,0,-1.25,744.60855,244.81226)"
         id="g172"
         style="display:inline;opacity:1;fill:#000000;fill-opacity:1;enable-background:new">
        <path
           inkscape:connector-curvature="0"
           id="path174"
           style="fill:#000000;fill-opacity:1;fill-rule:nonzero;stroke:none"
           d="m 0,0 c -1.888,-11.178 -5.539,-21.854 -10.693,-31.359 5.596,3.628 10.496,7.576 14.203,11.47 4.674,4.911 10.736,15.631 4.377,19.933 C 7.177,0.525 6.032,0.653 4.72,0.653 3.348,0.653 1.766,0.433 0,0 m -97.016,-71.148 c -2.174,0 -3.948,1.767 -3.948,3.948 l 0,3.892 c -11.917,6.599 -22.176,17.038 -29.716,30.264 -7.913,13.876 -12.434,30.175 -13.077,47.137 -0.017,0.577 0.195,1.142 0.599,1.557 0.399,0.419 0.951,0.655 1.534,0.655 l 140.938,0 c 0.582,0 1.139,-0.236 1.539,-0.655 0.401,-0.415 0.617,-0.98 0.594,-1.557 -0.006,-0.28 -0.021,-0.56 -0.039,-0.842 1.147,0.135 2.254,0.203 3.316,0.203 3.414,0 6.907,-0.379 9.531,-1.753 5.909,-3.094 9.082,-7.398 9.129,-18.007 0.034,-7.106 -3.21,-14.634 -10.601,-22.404 -9.873,-10.379 -26.177,-20.454 -41.638,-25.748 -4.488,-3.956 -9.328,-7.271 -14.411,-9.874 l 0,-2.868 c 0,-2.181 -1.773,-3.948 -3.944,-3.948 l -49.806,0 z" />
      </g>
      <g
         transform="matrix(1.25,0,0,-1.25,665.61605,218.45226)"
         id="g176"
         style="display:inline;opacity:1;fill:#000000;fill-opacity:1;enable-background:new">
        <path
           inkscape:connector-curvature="0"
           id="path178"
           style="fill:#000000;fill-opacity:1;fill-rule:nonzero;stroke:none"
           d="m 0,0 c -0.822,0 -1.578,0.484 -1.928,1.233 -0.532,1.149 -0.891,2.446 -1.098,3.97 -0.187,1.328 -0.204,2.714 -0.06,4.108 0.178,1.501 0.535,2.928 1.069,4.231 0.58,1.445 1.386,2.795 2.405,4.009 1.009,1.21 2.225,2.264 3.627,3.147 1.305,0.823 2.738,1.467 4.241,1.917 1.328,0.405 2.758,0.677 4.27,0.812 0.31,0.032 0.653,0.051 1.052,0.065 l 0.786,0.039 c 0.438,0.019 0.938,0.043 1.418,0.077 2.198,0.146 3.864,0.359 5.236,0.668 0.78,0.179 1.444,0.387 1.994,0.616 0.557,0.231 1.014,0.49 1.431,0.808 0.404,0.321 0.769,0.724 1.125,1.242 0.369,0.555 0.732,1.275 1.062,2.091 0,0.005 0.008,0.021 0.012,0.028 0.332,0.806 0.632,1.708 0.951,2.663 l 0.209,0.629 c 0.304,0.932 0.615,1.884 1.001,2.867 0.328,0.813 1.1,1.34 1.978,1.34 0.872,0 1.645,-0.527 1.975,-1.342 0.445,-1.138 0.808,-2.306 1.113,-3.569 0.311,-1.296 0.502,-2.55 0.577,-3.834 l 0.004,-0.022 c 0.07,-1.572 -0.047,-2.993 -0.365,-4.341 -0.364,-1.631 -1.069,-3.212 -2.034,-4.581 -0.924,-1.328 -2.169,-2.554 -3.609,-3.538 -1.21,-0.83 -2.588,-1.524 -4.074,-2.07 -2.358,-0.854 -4.836,-1.342 -7.801,-1.538 -0.696,-0.037 -1.291,-0.06 -1.856,-0.069 L 13.222,11.644 C 12.439,11.63 11.682,11.561 10.964,11.446 9.529,11.207 8.391,10.778 7.372,10.1 6.862,9.758 6.354,9.315 5.844,8.779 5.836,8.773 5.834,8.769 5.83,8.764 5.313,8.196 4.84,7.554 4.416,6.856 3.526,5.413 2.74,3.646 2.019,1.457 1.737,0.625 0.994,0.057 0.12,0.004 0.077,0.004 0.039,0 0,0" />
      </g>
    </g>
  </g>
</svg>
