<?xml version="1.0" encoding="UTF-8" standalone="no"?>
<!-- Created with Inkscape (http://www.inkscape.org/) -->

<svg
   xmlns:dc="http://purl.org/dc/elements/1.1/"
   xmlns:cc="http://creativecommons.org/ns#"
   xmlns:rdf="http://www.w3.org/1999/02/22-rdf-syntax-ns#"
   xmlns:svg="http://www.w3.org/2000/svg"
   xmlns="http://www.w3.org/2000/svg"
   xmlns:sodipodi="http://sodipodi.sourceforge.net/DTD/sodipodi-0.dtd"
   xmlns:inkscape="http://www.inkscape.org/namespaces/inkscape"
   width="28.13203mm"
   height="15.859495mm"
   viewBox="0 0 99.680423 56.195061"
   id="svg2"
   version="1.1"
   inkscape:version="0.91 r"
   sodipodi:docname="logo.svg">
  <title
     id="title3892">base template</title>
  <defs
     id="defs4" />
  <sodipodi:namedview
     id="base"
     pagecolor="#3e3e3e"
     bordercolor="#2a2a2a"
     borderopacity="1"
     inkscape:pageopacity="0"
     inkscape:pageshadow="2"
     inkscape:zoom="1.4142136"
     inkscape:cx="342.41053"
     inkscape:cy="-93.459441"
     inkscape:document-units="px"
     inkscape:current-layer="layer3"
     showgrid="false"
     inkscape:snap-global="true"
     inkscape:snap-bbox="true"
     units="mm"
     inkscape:window-width="1920"
     inkscape:window-height="1017"
     inkscape:window-x="1072"
     inkscape:window-y="426"
     inkscape:window-maximized="1"
     fit-margin-top="0"
     fit-margin-left="0"
     fit-margin-right="0"
     fit-margin-bottom="0" />
  <metadata
     id="metadata7">
    <rdf:RDF>
      <cc:Work
         rdf:about="">
        <dc:format>image/svg+xml</dc:format>
        <dc:type
           rdf:resource="http://purl.org/dc/dcmitype/StillImage" />
        <dc:title>base template</dc:title>
      </cc:Work>
    </rdf:RDF>
  </metadata>
  <g
     inkscape:groupmode="layer"
     id="layer3"
     inkscape:label="base"
     transform="translate(-125.52227,-331.30003)">
    <g
       style="display:inline;enable-background:new"
       id="g5109"
       transform="matrix(0.46224114,0,0,0.46224114,-91.350655,236.90366)"
       inkscape:export-xdpi="300"
       inkscape:export-ydpi="300">
      <g
         transform="matrix(1.25,0,0,-1.25,519.68703,324.31581)"
         id="g82">
        <path
           d="m 0,0 0,87.15 c 0,0 -1.919,0.62 -2.012,0.653 l -2.113,0.772 -1.17,-2.386 C -5.488,85.804 -5.678,85.42 -5.849,85.025 -9.039,77.762 -10.701,69.708 -10.783,61.1 -10.901,46.819 -10.925,32.305 -10.949,18.27 -10.958,12.443 -10.968,6.617 -10.984,0.791 -10.985,0.536 -10.986,0.28 -10.986,0.023 l -9.233,0 c 0.001,7 0.005,14 0.008,21 0.006,10.318 0.012,20.638 0.006,30.959 -0.018,10.002 -0.646,21.725 -5.169,32.854 -0.287,0.713 -0.671,1.548 -1.558,2.336 l -4.16,-1.869 0,-85.289 -9.316,0 0,96.045 9.281,-0.009 c 2.462,0 4.925,0.007 7.388,0.031 1.422,-3.67 2.858,-7.297 4.294,-10.924 l 1.268,-3.205 c 0.582,-1.639 1.901,-1.825 2.439,-1.825 l 1.383,0 0.735,1.172 c 0.139,0.221 0.303,0.562 0.36,0.996 l 0.578,1.384 c 1.683,4.028 3.421,8.189 5.206,12.331 4.268,0.041 8.513,0.047 12.487,0.047 L 9.168,96.055 9.168,0 0,0 Z"
           style="fill:#ffffff;fill-opacity:1;fill-rule:nonzero;stroke:none"
           id="path84"
           inkscape:connector-curvature="0" />
      </g>
      <g
         transform="matrix(1.25,0,0,-1.25,666.14333,325.78544)"
         id="g86">
        <path
           d="m 0,0 c -1.867,0 -3.498,0.126 -4.984,0.385 -6.007,1.065 -8.848,4.238 -9.493,10.607 -0.172,1.715 -0.26,3.448 -0.26,5.151 -0.018,24.86 -0.018,49.717 -0.018,74.585 l 0,6.415 9.402,0 0,-4.776 c -0.003,-25.819 -0.006,-51.634 0.016,-77.453 0,-1.001 0.128,-2.054 0.389,-3.216 0.568,-2.458 2.465,-3.919 5.079,-3.919 2.613,0.004 4.472,1.462 5.027,3.9 0.266,1.161 0.396,2.219 0.396,3.232 0.01,27.406 0.01,54.814 0.01,82.226 l 9.376,0 0.002,-17.345 C 14.945,58.053 14.948,36.315 14.914,14.576 14.904,12.681 14.684,10.665 14.261,8.594 13.281,3.794 9.557,0.577 4.54,0.198 2.775,0.063 1.333,0 0,0"
           style="fill:#ffffff;fill-opacity:1;fill-rule:nonzero;stroke:none"
           id="path88"
           inkscape:connector-curvature="0" />
      </g>
      <g
         transform="matrix(1.25,0,0,-1.25,519.68703,324.31581)"
         id="g90">
        <path
           d="m 0,0 0,87.15 -2.107,0.68 -0.402,0.002 c -2.105,0 -3.29,-2.692 -3.34,-2.807 C -9.039,77.762 -10.701,69.708 -10.783,61.1 -10.901,46.819 -10.925,32.305 -10.949,18.27 -10.958,12.443 -10.968,6.617 -10.984,0.791 -10.985,0.536 -10.986,0.28 -10.986,0.023 l -9.233,0 c 0.001,7 0.005,14 0.008,21 0.006,10.318 0.012,20.638 0.006,30.959 -0.018,10.002 -0.646,21.725 -5.169,32.854 -0.287,0.713 -0.671,1.548 -1.558,2.336 l -4.16,-1.869 0,-85.289 -9.316,0 0,96.045 9.281,-0.009 c 2.463,0 4.924,0.007 7.388,0.031 1.423,-3.67 2.858,-7.297 4.294,-10.924 l 1.268,-3.205 c 0.581,-1.635 1.895,-1.823 2.432,-1.825 l 1.385,-0.003 0.738,1.172 c 0.14,0.222 0.305,0.564 0.362,0.999 l 0.578,1.384 c 1.683,4.028 3.421,8.189 5.206,12.331 4.268,0.041 8.513,0.047 12.487,0.047 L 9.168,96.055 9.168,0 0,0 Z"
           style="fill:#ffffff;fill-opacity:1;fill-rule:evenodd;stroke:none"
           id="path92"
           inkscape:connector-curvature="0" />
      </g>
      <g
         transform="matrix(1.25,0,0,-1.25,614.26643,214.28219)"
         id="g94">
        <path
           d="m 0,0 c -0.679,0 -1.456,-0.048 -2.444,-0.152 l -2.24,-0.234 0,-27.349 1.907,-0.467 c 1.131,-0.276 2.11,-0.41 2.992,-0.41 1.721,0 3.115,0.523 4.144,1.555 1.625,1.63 1.808,4.004 1.804,5.649 l -0.002,4.785 c -10e-4,2.975 -0.002,5.948 0.002,8.921 0.004,2.275 -0.121,4.629 -1.678,6.19 C 3.133,-0.157 1.278,0 0,0 m 6.163,-88.013 0,44.303 c -0.024,5.984 -3.28,7.238 -6.007,7.238 -0.856,0 -1.811,-0.122 -2.919,-0.374 l -1.947,-0.441 0,-50.699 -9.323,0 0,95.985 c 1.239,-0.008 2.477,-0.012 3.715,-0.016 C -5.58,7.969 -0.68,7.953 4.105,7.734 10.959,7.417 14.789,3.747 15.179,-2.88 c 0.39,-6.503 0.253,-13.198 0.12,-19.673 l -0.064,-3.229 c -0.024,-1.297 -0.428,-3.15 -3.646,-4.249 l -0.579,-4.446 0.62,-0.419 c 0.402,-0.274 0.737,-0.5 1.081,-0.709 1.605,-0.954 2.421,-2.332 2.589,-4.35 0.114,-1.389 0.245,-3.221 0.245,-5.048 0.018,-11.462 0.016,-22.914 0.015,-34.369 l -0.001,-8.641 -9.396,0 z"
           style="fill:#ffffff;fill-opacity:1;fill-rule:evenodd;stroke:none"
           id="path96"
           inkscape:connector-curvature="0" />
      </g>
      <g
         transform="matrix(1.25,0,0,-1.25,666.14333,325.78544)"
         id="g98">
        <path
           d="m 0,0 c -1.867,0 -3.498,0.126 -4.984,0.385 -6.007,1.065 -8.848,4.238 -9.493,10.607 -0.172,1.715 -0.26,3.448 -0.26,5.151 -0.018,24.86 -0.018,49.717 -0.018,74.585 l 0,6.415 9.402,0 0,-4.776 c -0.003,-25.819 -0.006,-51.634 0.016,-77.453 0,-1.001 0.128,-2.054 0.389,-3.216 0.568,-2.458 2.465,-3.919 5.079,-3.919 2.613,0.004 4.472,1.462 5.027,3.9 0.266,1.161 0.396,2.219 0.396,3.232 0.01,27.406 0.01,54.814 0.01,82.226 l 9.376,0 0.002,-17.345 C 14.945,58.053 14.948,36.315 14.914,14.576 14.904,12.681 14.684,10.665 14.261,8.594 13.281,3.794 9.557,0.577 4.54,0.198 2.775,0.063 1.333,0 0,0"
           style="fill:#ffffff;fill-opacity:1;fill-rule:evenodd;stroke:none"
           id="path100"
           inkscape:connector-curvature="0" />
      </g>
      <g
         transform="matrix(1.25,0,0,-1.25,560.69343,229.19369)"
         id="g102">
        <path
           d="m 0,0 c -1.701,-13.68 -2.136,-27.652 -2.557,-41.164 -0.078,-2.493 -0.155,-4.991 -0.241,-7.493 l -0.088,-2.585 10.685,0 -0.071,3.034 C 7.354,-32.363 6.967,-15.979 4.961,0.002 L 0,0 Z m 8.001,-76.098 0,16.74 -10.8,0 0,-16.726 -9.468,0 c 0.038,19.443 0.608,35.382 1.792,50.14 1.449,18.122 3.884,32.721 7.659,45.902 l 3.773,0.004 c 2.026,0 4.373,-0.005 6.775,-0.04 0.503,-2.184 1.028,-4.366 1.554,-6.547 1.421,-5.904 2.891,-12.008 3.841,-18.04 3.704,-23.449 4.207,-47.176 4.383,-71.433 l -9.509,0 z"
           style="fill:#ffffff;fill-opacity:1;fill-rule:evenodd;stroke:none"
           id="path104"
           inkscape:connector-curvature="0" />
      </g>
    </g>
  </g>
</svg>
